<?xml version="1.0" encoding="UTF-8" standalone="no"?>
<svg 
 xmlns="http://www.w3.org/2000/svg"
 xmlns:xlink="http://www.w3.org/1999/xlink"
 width="902px" height="968px">
<path fill-rule="evenodd"  fill="rgb(255, 255, 255)"
 d="M831.985,648.681 C839.475,632.204 834.981,638.196 825.993,617.225 C822.998,608.238 822.998,612.731 815.508,606.740 C806.520,600.748 811.014,597.752 800.529,608.238 C784.052,624.715 772.068,641.192 761.583,660.665 C760.085,663.661 758.587,669.652 755.591,668.154 C743.608,666.656 790.043,606.740 796.035,600.748 C808.018,588.765 803.525,596.254 799.031,581.275 C794.537,564.798 799.031,560.304 775.064,593.258 C773.566,596.254 760.085,621.719 754.093,617.225 C749.599,614.229 773.566,588.765 773.566,584.271 C773.566,581.275 764.579,573.786 763.081,567.794 C761.583,561.802 763.081,557.308 764.579,551.317 C761.583,548.321 740.612,545.325 739.114,516.865 C739.114,512.371 739.114,507.877 736.118,501.885 C734.620,498.890 733.122,500.387 730.127,492.898 C716.645,489.902 721.139,476.421 715.147,467.433 C709.156,459.944 715.147,459.944 706.160,452.454 C698.670,447.960 698.670,450.956 686.687,470.429 C674.704,491.400 665.716,509.375 658.226,531.844 C656.729,534.840 653.733,543.827 650.737,542.329 C644.745,542.329 650.737,531.844 652.235,530.346 C664.218,500.387 674.704,471.927 694.177,447.960 C703.164,434.479 685.189,443.467 677.699,426.989 C676.201,422.496 676.201,419.500 676.201,413.508 C674.704,407.517 667.214,413.508 668.712,392.537 C668.712,385.048 670.210,376.060 670.210,368.571 C667.214,367.073 664.218,367.073 661.222,367.073 C658.226,364.077 656.729,359.583 653.733,358.085 C647.741,355.089 641.749,356.587 632.762,349.098 C620.778,341.608 623.774,349.098 619.281,376.060 C610.293,423.994 577.339,504.881 550.376,545.325 C539.891,560.304 536.895,552.815 539.891,548.321 C542.887,542.329 550.376,534.840 562.360,509.375 C580.335,470.429 602.803,418.002 610.293,377.558 C611.791,368.571 613.289,356.587 616.285,347.600 C619.281,337.114 619.281,341.608 611.791,334.119 C605.799,328.127 605.799,325.131 598.310,326.629 C590.820,328.127 592.318,331.123 593.816,337.114 C593.816,346.102 592.318,359.583 593.816,370.069 C593.816,377.558 595.314,380.554 586.326,385.048 C571.347,392.537 575.841,388.044 581.833,409.014 C587.824,426.989 583.331,422.496 565.355,420.998 C548.878,420.998 554.870,419.500 545.883,416.504 C544.385,416.504 541.389,416.504 539.891,415.006 C536.895,385.048 530.903,356.587 530.903,325.131 C524.912,325.131 527.908,319.139 521.916,335.616 C509.933,377.558 493.455,407.517 472.485,444.965 C469.489,449.458 450.016,486.906 442.526,482.412 C438.032,480.915 447.020,474.923 448.518,471.927 C464.995,444.965 484.468,409.014 497.949,380.554 C499.447,379.056 500.945,376.060 497.949,374.562 C493.455,373.064 490.460,382.052 488.962,385.048 C466.493,420.998 453.012,450.956 418.559,479.417 C412.568,485.408 405.078,491.400 396.091,492.898 L373.622,527.350 C366.132,539.333 363.136,534.840 367.630,549.819 C376.618,572.288 379.614,591.761 405.078,602.246 C426.049,609.736 405.078,615.727 387.103,602.246 C373.622,590.263 384.107,599.250 372.124,632.204 C351.153,690.623 333.178,728.071 340.668,793.980 C342.166,810.457 345.161,808.959 364.634,820.942 C385.605,834.423 414.066,826.934 414.066,834.423 C412.568,840.415 375.120,840.415 354.149,822.440 C352.651,820.942 349.655,819.444 346.659,819.444 C345.161,823.938 348.157,826.934 348.157,831.428 C352.651,858.390 333.178,862.884 361.639,888.348 C379.614,904.826 417.062,901.830 417.062,909.319 C415.564,913.813 400.584,910.817 397.589,910.817 C361.639,906.323 351.153,888.348 346.659,889.846 C342.166,894.340 346.659,964.742 451.514,967.738 C479.974,967.738 479.974,966.240 505.439,963.244 C539.891,957.253 530.903,966.240 574.343,949.763 C641.749,924.298 704.662,906.323 736.118,835.921 C739.114,825.436 742.110,814.950 746.604,804.465 C751.097,796.975 751.097,789.486 742.110,798.473 C730.127,810.457 709.156,841.913 706.160,840.415 C700.168,840.415 706.160,832.925 706.160,831.428 C719.641,816.448 725.633,804.465 739.114,790.984 L781.056,755.034 C787.047,749.042 784.052,744.548 778.060,749.042 C776.562,750.540 775.064,753.536 773.566,753.536 L758.587,765.519 C755.591,767.017 754.093,773.009 749.599,771.511 C748.102,765.519 761.583,755.034 766.077,752.038 C781.056,740.054 788.545,729.569 805.022,716.088 C811.014,713.092 824.495,704.104 824.495,698.113 C825.993,696.615 825.993,678.640 824.495,677.142 C821.500,677.142 818.504,680.138 817.006,683.134 C805.022,698.113 790.043,710.096 776.562,725.075 C769.072,732.565 761.583,732.565 773.566,717.586 C794.537,693.619 818.504,677.142 831.985,648.681 ZM671.708,729.569 C680.695,729.569 671.708,738.557 670.210,740.054 C637.256,777.502 620.778,801.469 571.347,822.440 C569.849,822.440 554.870,831.428 553.372,829.930 C542.887,823.938 578.837,811.955 584.828,808.959 C626.770,784.992 667.214,731.067 671.708,729.569 ZM402.082,572.288 C438.032,591.761 472.485,572.288 472.485,581.275 C472.485,590.263 426.049,593.258 402.082,581.275 C393.095,576.781 372.124,566.296 382.609,552.815 C384.107,551.317 387.103,552.815 387.103,554.313 C390.099,561.802 381.112,561.802 402.082,572.288 ZM333.178,549.819 C345.161,543.827 376.618,515.367 375.120,507.877 C370.626,506.379 358.643,518.363 354.149,521.358 C346.659,525.852 297.228,563.300 288.241,557.308 C288.241,551.317 304.718,546.823 319.697,537.835 C346.659,519.860 372.124,498.890 394.593,473.425 C400.584,465.935 403.580,459.944 408.074,452.454 C427.547,418.002 454.510,388.044 473.982,355.089 C496.451,319.139 515.924,280.193 532.401,241.248 C536.895,232.260 532.401,229.264 527.908,238.252 C517.422,254.729 506.937,271.206 497.949,290.679 C479.974,325.131 453.012,377.558 429.045,407.517 C418.559,423.994 403.580,435.977 391.597,450.956 C385.605,458.446 379.614,455.450 387.103,447.960 C424.551,406.019 430.543,398.529 459.003,349.098 C463.497,341.608 459.003,338.612 454.510,346.102 C436.534,373.064 417.062,401.525 393.095,422.496 C381.112,432.981 370.626,449.458 366.132,441.969 C370.626,431.483 406.576,400.027 417.062,386.546 L481.472,293.675 C497.949,265.214 512.928,238.252 532.401,212.787 C547.380,194.812 539.891,191.816 533.899,200.804 C508.435,232.260 454.510,299.666 426.049,325.131 C376.618,371.566 348.157,395.533 294.232,437.475 C276.257,450.956 232.818,489.902 213.345,497.392 C210.349,498.890 198.365,503.383 198.365,497.392 C198.365,492.898 205.855,492.898 208.851,492.898 C231.320,482.412 268.768,446.462 288.241,432.981 C327.186,403.023 403.580,340.110 438.032,302.662 L469.489,265.214 C473.982,259.223 500.945,232.260 499.447,226.268 C496.451,224.770 493.455,229.264 490.460,230.762 C478.476,242.745 464.995,253.231 453.012,266.712 C432.041,289.181 406.576,322.135 381.112,337.114 C367.630,346.102 327.186,395.533 282.249,420.998 C279.253,422.496 264.274,429.985 264.274,423.994 C264.274,420.998 271.763,420.998 274.759,419.500 C300.224,409.014 370.626,332.621 378.116,329.625 C384.107,328.127 382.609,329.625 388.601,325.131 C415.564,299.666 435.037,272.704 451.514,256.227 C459.003,250.235 454.510,248.737 444.024,256.227 C423.053,269.708 400.584,286.185 379.614,298.168 L366.132,302.662 C364.634,304.160 358.643,310.152 355.647,305.658 C352.651,301.164 376.618,292.177 379.614,290.679 C402.082,277.198 423.053,260.721 445.522,247.239 C447.020,245.741 450.016,244.243 448.518,241.248 C441.028,239.750 433.539,254.729 426.049,250.235 C424.551,244.243 464.995,227.766 475.480,218.779 C481.472,215.783 523.414,188.820 523.414,184.327 C521.916,176.837 506.937,185.825 502.443,187.322 C451.514,205.298 442.526,209.791 399.087,239.750 C358.643,268.210 328.684,298.168 276.257,296.671 C237.311,296.671 232.818,271.206 247.797,281.691 C262.776,292.177 285.245,289.181 304.718,286.185 C372.124,271.206 405.078,202.302 503.941,178.335 C506.937,176.837 509.933,176.837 511.430,173.841 C511.430,163.356 497.949,170.845 493.455,170.845 C453.012,179.833 439.530,191.816 408.074,217.281 C382.609,236.754 358.643,259.223 325.689,268.210 C322.693,268.210 312.207,272.704 312.207,268.210 C310.709,263.716 327.186,260.721 331.680,259.223 C373.622,244.243 406.576,203.800 442.526,181.331 C445.522,179.833 450.016,179.833 450.016,175.339 C447.020,169.347 417.062,191.816 415.564,193.314 C412.568,194.812 408.074,200.804 403.580,199.306 C403.580,194.812 408.074,191.816 411.070,188.820 C432.041,172.343 456.007,161.858 484.468,155.866 C488.962,154.368 497.949,155.866 499.447,152.870 C500.945,149.875 497.949,145.381 494.953,145.381 C487.464,142.385 459.003,151.372 450.016,152.870 C444.024,154.368 436.534,155.866 436.534,151.372 C436.534,148.377 444.024,148.377 447.020,146.879 C456.007,143.883 461.999,140.887 472.485,139.389 C476.978,139.389 484.468,139.389 482.970,136.393 C482.970,128.904 456.007,133.397 453.012,133.397 L381.112,149.875 C363.136,154.368 369.128,160.360 385.605,158.862 C390.099,158.862 396.091,152.870 397.589,157.364 C400.584,163.356 387.103,166.352 384.107,167.850 C358.643,170.845 376.618,160.360 343.664,176.837 C319.697,188.820 307.713,215.783 288.241,223.273 C279.253,226.268 264.274,227.766 253.788,223.273 C249.295,221.775 246.299,217.281 241.805,212.787 C228.324,200.804 202.859,193.314 201.361,172.343 C199.863,167.850 202.859,163.356 202.859,158.862 C202.859,157.364 201.361,155.866 202.859,154.368 C202.859,146.879 205.855,152.870 202.859,140.887 C199.863,122.912 202.859,106.435 187.880,136.393 C177.395,160.360 144.440,172.343 150.432,224.770 C151.930,235.256 163.913,250.235 159.420,251.733 C151.930,256.227 142.942,229.264 142.942,220.277 C141.445,206.795 142.942,200.804 132.457,211.289 C117.478,229.264 127.963,253.231 115.980,283.189 C108.490,304.160 126.465,283.189 126.465,295.173 C126.465,298.168 120.474,298.168 117.478,299.666 C105.494,304.160 103.997,334.119 96.507,347.600 C92.013,359.583 87.519,371.566 80.030,382.052 C66.549,400.027 72.540,388.044 77.034,412.010 C80.030,434.479 69.544,453.952 68.046,473.425 C68.046,483.910 71.042,497.392 77.034,483.910 C78.532,480.915 84.524,461.442 89.017,462.940 C99.503,464.437 63.553,521.358 60.557,530.346 C57.561,539.333 62.055,537.835 68.046,536.338 C103.997,521.358 78.532,498.890 120.474,471.927 C121.972,470.429 150.432,453.952 150.432,464.437 C150.432,467.433 139.947,465.935 121.972,479.417 C89.017,504.881 109.988,528.848 77.034,542.329 C65.051,546.823 60.557,546.823 53.067,557.308 C51.569,558.806 50.071,561.802 50.071,564.798 C53.067,567.794 87.519,566.296 92.013,566.296 C105.494,564.798 117.478,558.806 132.457,558.806 C138.449,557.308 219.336,551.317 217.838,563.300 C216.340,569.292 183.386,564.798 178.892,564.798 C133.955,561.802 106.992,576.781 66.549,575.283 C63.553,575.283 57.561,573.786 59.059,578.279 C59.059,584.271 106.992,579.777 111.486,578.279 C130.959,575.283 147.436,572.288 166.909,573.786 C177.395,573.786 186.382,575.283 195.370,575.283 C241.805,576.781 268.768,555.810 270.266,564.798 C270.266,573.786 217.838,582.773 211.847,582.773 C180.390,584.271 174.399,575.283 121.972,584.271 C117.478,584.271 95.009,585.769 95.009,588.765 C93.511,591.761 102.499,591.761 103.997,593.258 C147.436,599.250 150.432,600.748 193.872,602.246 C211.847,602.246 210.349,599.250 228.324,596.254 C253.788,590.263 270.266,576.781 289.738,567.794 C304.718,560.304 319.697,555.810 333.178,549.819 ZM223.830,418.002 C201.361,415.006 190.876,394.035 154.926,389.542 C95.009,383.550 96.507,425.492 90.515,423.994 C84.524,423.994 89.017,383.550 142.942,382.052 C211.847,379.056 205.855,432.981 271.763,401.525 C276.257,400.027 279.253,400.027 279.253,403.023 C282.249,409.014 243.303,422.496 223.830,418.002 ZM291.236,482.412 C291.236,485.408 244.801,512.371 238.809,515.367 C222.332,524.354 156.424,554.313 135.453,551.317 C130.959,551.317 124.967,546.823 133.955,545.325 L151.930,542.329 C205.855,531.844 285.245,479.417 285.245,479.417 C288.241,479.417 289.738,479.417 291.236,482.412 ZM258.282,344.604 C258.282,337.114 283.747,346.102 321.195,331.123 C330.182,326.629 360.141,310.152 367.630,310.152 C390.099,308.654 313.705,343.106 303.220,344.604 C297.228,347.600 256.784,355.089 258.282,344.604 ZM301.722,525.852 C298.726,528.848 295.730,533.342 291.236,531.844 C289.738,527.350 294.232,524.354 297.228,522.856 C301.722,516.865 354.149,473.425 358.643,470.429 C360.141,468.931 363.136,468.931 364.634,470.429 C364.634,477.919 334.676,498.890 328.684,503.383 L301.722,525.852 ZM267.270,326.629 C267.270,335.616 202.859,325.131 202.859,316.143 L205.855,313.148 C210.349,313.148 216.340,317.641 220.834,317.641 C235.813,322.135 246.299,322.135 261.278,323.633 C262.776,323.633 267.270,323.633 267.270,326.629 ZM109.988,365.575 C108.490,367.073 99.503,376.060 98.005,368.571 C98.005,364.077 103.997,361.081 106.992,359.583 C118.976,350.596 159.420,343.106 159.420,350.596 C159.420,356.587 130.959,350.596 109.988,365.575 ZM193.872,656.171 C198.365,645.686 222.332,615.727 220.834,606.740 C214.843,605.242 213.345,608.238 210.349,609.736 C187.880,617.225 130.959,605.242 103.997,600.748 C86.022,597.752 68.046,596.254 50.071,599.250 C30.599,603.744 38.088,603.744 26.105,609.736 C20.113,612.731 5.134,615.727 2.138,621.719 C0.640,624.715 -0.858,636.698 3.636,636.698 C8.130,638.196 12.624,624.715 17.117,626.213 C23.109,629.209 9.628,644.188 8.130,653.175 C6.632,669.652 11.126,674.146 5.134,690.623 C3.636,695.117 0.640,699.611 2.138,704.104 C9.628,705.602 6.632,696.615 11.126,711.594 C17.117,726.573 21.611,737.059 36.590,743.050 C78.532,759.527 95.009,716.088 115.980,681.636 C123.469,669.652 130.959,647.184 139.947,639.694 C153.428,626.213 157.922,636.698 156.424,641.192 C156.424,644.188 151.930,642.690 150.432,644.188 C145.938,651.677 139.947,699.611 118.976,728.071 C117.478,731.067 111.486,735.561 112.984,738.557 C115.980,741.552 123.469,734.063 124.967,731.067 C127.963,726.573 133.955,701.109 141.445,702.607 C147.436,704.104 132.457,725.075 138.449,728.071 C142.942,731.067 148.934,710.096 145.938,704.104 C144.440,699.611 150.432,680.138 150.432,672.648 C150.432,668.154 150.432,662.163 153.428,663.661 C159.420,663.661 154.926,687.627 154.926,693.619 C154.926,707.100 154.926,717.586 151.930,725.075 C151.930,728.071 147.436,731.067 147.436,735.561 C153.428,743.050 169.905,731.067 174.399,725.075 C189.378,708.598 187.880,677.142 193.872,656.171 ZM71.042,635.200 C75.536,636.698 86.022,627.711 87.519,635.200 C87.519,641.192 72.540,647.184 66.549,654.673 C60.557,660.665 56.063,668.154 45.578,668.154 C32.096,666.656 23.109,624.715 38.088,621.719 C51.569,618.723 30.599,642.690 41.084,642.690 C45.578,644.188 44.080,626.213 50.071,627.711 C56.063,629.209 36.590,675.644 59.059,650.179 C68.046,639.694 66.549,645.686 60.557,635.200 C59.059,632.204 56.063,623.217 62.055,623.217 C68.046,621.719 65.051,635.200 71.042,635.200 ZM83.026,653.175 C93.511,653.175 77.034,695.117 71.042,687.627 C69.544,684.631 75.536,681.636 72.540,678.640 C68.046,678.640 62.055,689.125 42.582,689.125 C11.126,687.627 15.619,645.686 24.607,650.179 C30.599,659.167 18.615,683.134 48.574,678.640 C68.046,675.644 65.051,666.656 72.540,663.661 L77.034,663.661 C80.030,660.665 77.034,653.175 83.026,653.175 ZM92.013,675.644 C87.519,672.648 92.013,657.669 98.005,663.661 C98.005,668.154 98.005,675.644 92.013,675.644 ZM201.361,39.029 C193.872,64.493 204.357,71.983 207.353,94.452 C211.847,130.402 211.847,161.858 232.818,191.816 C240.307,200.804 241.805,200.804 250.793,209.791 C262.776,220.277 261.278,206.795 259.780,200.804 L250.793,191.816 C247.797,190.318 237.311,184.327 243.303,181.331 C249.295,179.833 249.295,187.322 255.286,185.825 C256.784,182.829 255.286,166.352 241.805,161.858 C237.311,160.360 234.315,161.858 234.315,158.862 C232.818,151.372 249.295,160.360 243.303,149.875 C231.320,131.900 235.813,110.929 228.324,91.456 C226.826,88.460 207.353,61.497 217.838,61.497 C220.834,61.497 222.332,65.991 223.830,68.987 C232.818,85.464 235.813,77.974 243.303,118.418 C247.797,152.870 259.780,152.870 265.772,185.825 C267.270,193.314 270.266,200.804 268.768,206.795 C268.768,215.783 264.274,218.779 277.755,215.783 C304.718,209.791 309.211,184.327 327.186,173.841 C328.684,172.343 331.680,172.343 334.676,170.845 C330.182,140.887 307.713,104.937 286.743,86.962 C270.266,70.485 247.797,59.999 234.315,40.526 C223.830,24.049 229.822,27.045 213.345,9.070 C211.847,7.572 202.859,-2.913 201.361,1.581 C199.863,7.572 213.345,24.049 214.843,31.539 C216.340,34.535 217.838,42.024 213.345,42.024 C210.349,42.024 208.851,18.058 201.361,39.029 ZM487.464,79.472 C485.966,88.460 490.460,95.949 491.957,103.439 C493.455,107.933 491.957,112.427 494.953,112.427 C497.949,112.427 497.949,107.933 499.447,104.937 C500.945,104.937 503.941,104.937 503.941,103.439 C503.941,97.447 503.941,70.485 512.928,71.983 C518.920,71.983 508.435,88.460 511.430,94.452 C517.422,95.949 520.418,85.464 518.920,106.435 C512.928,163.356 550.376,155.866 548.878,163.356 C547.380,173.841 509.933,157.364 509.933,119.916 C509.933,113.924 511.430,107.933 503.941,106.435 C500.945,110.929 499.447,125.908 500.945,130.402 C502.443,140.887 515.924,163.356 521.916,170.845 C529.405,179.833 539.891,184.327 547.380,191.816 C577.339,218.779 586.326,208.293 608.795,197.808 C635.758,184.327 646.243,166.352 622.276,142.385 C620.778,140.887 619.281,137.891 616.285,137.891 C613.289,140.887 620.778,163.356 604.301,179.833 C599.808,182.829 578.837,194.812 578.837,185.825 C578.837,182.829 590.820,179.833 595.314,176.837 C608.795,164.854 611.791,133.397 602.803,133.397 C598.310,133.397 602.803,137.891 596.812,152.870 C590.820,167.850 583.331,178.335 566.853,182.829 C565.355,182.829 548.878,185.825 550.376,179.833 C550.376,176.837 551.874,176.837 557.866,176.837 C569.849,175.339 592.318,158.862 589.322,146.879 C584.828,145.381 581.833,149.875 580.335,151.372 C568.351,157.364 565.355,158.862 551.874,152.870 C532.401,143.883 526.410,109.431 536.895,109.431 C541.389,109.431 535.397,122.912 547.380,134.895 C556.368,145.381 557.866,133.397 559.364,124.410 C559.364,100.443 532.401,77.974 545.883,77.974 C551.874,77.974 572.845,113.924 565.355,134.895 C562.360,139.389 556.368,146.879 568.351,145.381 C574.343,145.381 586.326,136.393 590.820,131.900 C604.301,115.422 602.803,97.447 596.812,79.472 C578.837,30.041 490.460,31.539 487.464,79.472 ZM739.114,331.123 C737.616,328.127 736.118,325.131 733.122,325.131 C730.127,325.131 734.620,343.106 733.122,356.587 C733.122,362.579 733.122,376.060 727.131,374.562 C724.135,373.064 725.633,364.077 725.633,362.579 C730.127,329.625 718.143,308.654 709.156,281.691 C703.164,266.712 700.168,268.210 695.674,256.227 C692.679,247.239 689.683,248.737 691.181,260.721 C691.181,265.214 698.670,293.675 691.181,292.177 C688.185,292.177 688.185,287.683 688.185,283.189 C686.687,272.704 674.704,208.293 665.716,211.289 C661.222,212.787 674.704,242.745 677.699,265.214 C677.699,268.210 679.197,272.704 676.201,272.704 C671.708,271.206 673.206,265.214 671.708,260.721 C670.210,245.741 662.720,230.762 658.226,215.783 C656.729,211.289 655.231,200.804 652.235,202.302 C643.247,202.302 668.712,263.716 658.226,263.716 C655.231,265.214 653.733,250.235 652.235,245.741 C649.239,229.264 643.247,214.285 640.251,197.808 C640.251,193.314 640.251,184.327 635.758,188.820 C628.268,194.812 629.766,194.812 632.762,203.800 C632.762,206.795 653.733,256.227 643.247,254.729 C640.251,254.729 641.749,250.235 640.251,245.741 C640.251,244.243 623.774,200.804 622.276,200.804 C619.281,200.804 617.783,202.302 616.285,203.800 C619.281,217.281 625.272,230.762 631.264,244.243 C632.762,245.741 638.754,253.231 634.260,254.729 C629.766,257.725 629.766,242.745 623.774,245.741 C619.281,248.737 638.754,271.206 640.251,272.704 C655.231,295.173 644.745,262.218 652.235,262.218 C655.231,262.218 655.231,272.704 656.729,275.700 C658.226,299.666 662.720,322.135 670.210,340.110 C673.206,350.596 680.695,359.583 679.197,374.562 C679.197,385.048 683.691,383.550 685.189,377.558 C689.683,349.098 671.708,325.131 670.210,299.666 C668.712,280.193 676.201,274.202 676.201,286.185 C676.201,308.654 676.201,310.152 685.189,331.123 C691.181,344.604 695.674,374.562 698.670,347.600 C703.164,313.148 688.185,299.666 694.177,296.671 C703.164,292.177 707.658,320.637 707.658,326.629 C710.654,359.583 691.181,383.550 698.670,428.487 C700.168,431.483 700.168,435.977 703.164,434.479 C707.658,434.479 701.666,413.508 706.160,385.048 C707.658,373.064 710.654,361.081 713.649,349.098 C713.649,344.604 713.649,340.110 718.143,340.110 C727.131,340.110 710.654,389.542 712.152,416.504 C712.152,420.998 712.152,426.989 715.147,426.989 C719.641,425.492 722.637,383.550 731.624,383.550 C740.612,382.052 728.629,410.512 724.135,425.492 C724.135,428.487 721.139,437.475 724.135,437.475 C730.127,438.973 730.127,413.508 736.118,410.512 C739.114,409.014 746.604,410.512 748.102,404.521 C751.097,398.529 743.608,397.031 757.089,371.566 C764.579,356.587 776.562,335.616 757.089,326.629 C754.093,323.633 748.102,320.637 743.608,322.135 C743.608,329.625 757.089,331.123 748.102,377.558 C745.106,391.039 739.114,386.546 742.110,374.562 C745.106,359.583 748.102,344.604 739.114,331.123 ZM115.980,170.845 C142.942,200.804 123.469,214.285 151.930,169.347 C172.901,136.393 177.395,146.879 165.411,136.393 C147.436,121.414 130.959,86.962 114.482,67.489 C95.009,42.024 78.532,42.024 103.997,65.991 C106.992,68.987 111.486,70.485 111.486,74.979 C109.988,82.468 103.997,62.995 103.997,98.945 C105.494,118.418 105.494,131.900 115.980,146.879 C126.465,163.356 112.984,154.368 106.992,145.381 C105.494,143.883 103.997,137.891 101.001,139.389 C93.511,142.385 114.482,167.850 115.980,170.845 ZM653.733,161.858 C649.239,175.339 646.243,158.862 661.222,187.322 C665.716,196.310 664.218,191.816 670.210,196.310 C673.206,199.306 674.704,205.298 677.699,208.293 C685.189,221.775 683.691,208.293 704.662,250.235 C706.160,253.231 727.131,292.177 733.122,290.679 C734.620,289.181 736.118,265.214 734.620,262.218 C734.620,247.239 725.633,241.248 721.139,232.260 C713.649,214.285 727.131,188.820 700.168,172.343 C689.683,164.854 671.708,166.352 662.720,155.866 C661.222,152.870 659.724,149.875 656.729,148.377 C650.737,149.875 655.231,154.368 653.733,161.858 ZM820.002,452.454 C818.504,452.454 812.512,471.927 811.014,474.923 L808.018,501.885 L802.027,504.881 C800.529,521.358 805.022,506.379 803.525,528.848 C802.027,545.325 802.027,561.802 806.520,578.279 C808.018,582.773 808.018,588.765 812.512,590.263 C817.006,588.765 808.018,575.283 815.508,575.283 C818.504,575.283 818.504,576.781 818.504,581.275 C820.002,587.267 836.479,626.213 840.973,624.715 C846.964,623.217 833.483,599.250 831.985,579.777 C830.487,570.790 830.487,561.802 830.487,552.815 C830.487,548.321 821.500,507.877 831.985,509.375 C837.977,510.873 830.487,536.338 837.977,536.338 C840.973,536.338 839.475,531.844 840.973,527.350 C840.973,512.371 849.960,497.392 840.973,482.412 C831.985,467.433 830.487,468.931 828.989,483.910 C821.500,521.358 817.006,512.371 820.002,557.308 C820.002,563.300 821.500,567.794 817.006,567.794 C809.516,567.794 812.512,519.860 812.512,515.367 C815.508,498.890 822.998,483.910 824.495,467.433 C824.495,461.442 824.495,447.960 820.002,452.454 ZM418.559,100.443 C402.082,98.945 345.161,101.941 321.195,101.941 C310.709,100.443 315.203,104.937 319.697,110.929 C325.689,121.414 322.693,118.418 345.161,116.920 C370.626,116.920 400.584,115.422 427.547,118.418 C432.041,118.418 436.534,119.916 441.028,118.418 C441.028,112.427 429.045,107.933 457.505,109.431 C463.497,110.929 470.987,113.924 475.480,110.929 C475.480,106.435 469.489,106.435 466.493,104.937 C417.062,91.456 435.037,98.945 429.045,101.941 C427.547,101.941 423.053,101.941 418.559,100.443 ZM560.862,326.629 C577.339,317.641 652.235,319.139 571.347,281.691 C547.380,269.708 554.870,265.214 548.878,263.716 C542.887,262.218 548.878,326.629 553.372,331.123 C557.866,331.123 557.866,328.127 560.862,326.629 ZM488.962,368.571 C491.957,365.575 509.933,329.625 508.435,325.131 C503.941,319.139 502.443,325.131 500.945,328.127 C479.974,371.566 438.032,413.508 409.572,467.433 C408.074,470.429 405.078,474.923 406.576,477.919 C411.070,479.417 435.037,452.454 438.032,447.960 C448.518,435.977 482.970,380.554 488.962,368.571 ZM791.541,410.512 C787.047,409.014 787.047,431.483 787.047,435.977 C787.047,440.471 791.541,459.944 785.550,459.944 C779.558,459.944 784.052,443.467 778.060,444.965 C773.566,446.462 776.562,455.450 776.562,461.442 C776.562,465.935 773.566,470.429 775.064,473.425 C776.562,474.923 779.558,473.425 781.056,474.923 C785.550,491.400 770.570,521.358 775.064,525.852 C785.550,525.852 787.047,492.898 787.047,486.906 C787.047,482.412 785.550,476.421 790.043,476.421 C796.035,476.421 790.043,494.396 800.529,491.400 C802.027,488.404 802.027,483.910 802.027,480.915 C803.525,462.940 818.504,444.965 811.014,425.492 C809.516,420.998 797.533,410.512 791.541,410.512 ZM345.161,564.798 C351.153,558.806 358.643,543.827 349.655,549.819 C345.161,551.317 343.664,554.313 339.170,557.308 C327.186,564.798 313.705,567.794 300.224,573.786 C297.228,573.786 252.290,596.254 250.793,597.752 C249.295,600.748 247.797,608.238 247.797,611.233 C244.801,618.723 240.307,629.209 250.793,620.221 C277.755,596.254 319.697,590.263 345.161,564.798 ZM426.049,128.904 C426.049,125.908 418.559,127.406 414.066,127.406 C405.078,127.406 331.680,124.410 328.684,127.406 L334.676,142.385 C339.170,151.372 340.668,166.352 342.166,166.352 C346.659,167.850 346.659,161.858 348.157,160.360 C351.153,157.364 360.141,152.870 364.634,149.875 C381.112,136.393 426.049,134.895 426.049,128.904 ZM631.264,328.127 C629.766,314.646 640.251,296.671 640.251,292.177 C638.754,278.696 613.289,278.696 604.301,275.700 C593.816,271.206 583.331,262.218 574.343,262.218 C566.853,263.716 569.849,269.708 574.343,272.704 C584.828,280.193 613.289,283.189 617.783,305.658 C620.778,317.641 611.791,317.641 613.289,323.633 C613.289,326.629 620.778,331.123 622.276,332.621 C626.770,335.616 628.268,340.110 634.260,338.612 C635.758,334.119 632.762,332.621 631.264,328.127 ZM855.952,581.275 C851.458,573.786 846.964,563.300 843.968,554.313 C839.475,540.831 836.479,542.329 837.977,555.810 C840.973,573.786 839.475,590.263 845.466,605.242 C863.441,645.686 834.981,651.677 833.483,678.640 C833.483,681.636 833.483,684.631 836.479,684.631 C839.475,684.631 839.475,677.142 840.973,672.648 C846.964,653.175 876.923,629.209 855.952,581.275 ZM571.347,380.554 C604.301,367.073 553.372,356.587 548.878,346.102 C548.878,344.604 544.385,323.633 539.891,328.127 C538.393,331.123 539.891,337.114 541.389,341.608 L547.380,383.550 C547.380,406.019 548.878,391.039 571.347,380.554 ZM831.985,779.000 C843.968,762.523 861.943,761.025 860.445,735.561 C860.445,731.067 858.948,729.569 858.948,723.577 C858.948,720.582 849.960,695.117 846.964,695.117 C839.475,698.113 855.952,726.573 855.952,729.569 C852.956,740.054 840.973,720.582 839.475,701.109 C837.977,695.117 839.475,686.129 833.483,689.125 C827.491,696.615 848.462,740.054 840.973,758.030 C837.977,765.519 820.002,777.502 827.491,784.992 C830.487,784.992 830.487,781.996 831.985,779.000 ZM855.952,543.827 C849.960,552.815 885.910,587.267 890.404,612.731 C890.404,615.727 890.404,621.719 893.400,620.221 C897.893,620.221 897.893,599.250 897.893,596.254 C897.893,572.288 879.918,561.802 866.437,551.317 C863.441,548.321 860.445,543.827 855.952,543.827 ZM888.906,672.648 C905.383,665.159 902.387,656.171 897.893,641.192 L894.898,629.209 C888.906,627.711 888.906,635.200 885.910,623.217 C884.412,611.233 869.433,578.279 867.935,588.765 C867.935,593.258 869.433,596.254 870.931,600.748 C875.425,615.727 879.918,630.706 879.918,647.184 C884.412,648.681 885.910,656.171 885.910,662.163 C884.412,669.652 872.429,680.138 888.906,672.648 ZM592.318,248.737 C589.322,244.243 583.331,230.762 583.331,224.770 C581.833,221.775 583.331,218.779 581.833,217.281 C577.339,215.783 572.845,214.285 569.849,215.783 C566.853,220.277 563.858,239.750 562.360,245.741 C560.862,250.235 557.866,254.729 560.862,260.721 C568.351,260.721 569.849,248.737 589.322,257.725 C592.318,259.223 595.314,262.218 598.310,260.721 C598.310,256.227 593.816,253.231 592.318,248.737 ZM761.583,465.935 C755.591,486.906 740.612,512.371 752.595,533.342 C755.591,536.338 760.085,540.831 764.579,540.831 C770.570,534.840 764.579,528.848 763.081,524.354 C754.093,503.383 778.060,452.454 767.575,449.458 L766.077,449.458 C764.579,450.956 763.081,461.442 761.583,465.935 ZM769.072,368.571 C767.575,368.571 751.097,406.019 760.085,407.517 C764.579,407.517 761.583,398.529 764.579,397.031 C769.072,394.035 767.575,404.521 773.566,391.039 C773.566,391.039 773.566,385.048 778.060,386.546 C782.554,386.546 775.064,401.525 775.064,406.019 C772.068,425.492 778.060,432.981 779.558,418.002 C782.554,406.019 790.043,395.533 787.047,383.550 C785.550,376.060 776.562,368.571 769.072,368.571 ZM596.812,241.248 C598.310,247.239 602.803,251.733 602.803,257.725 C602.803,265.214 598.310,265.214 620.778,271.206 C641.749,277.198 608.795,253.231 602.803,220.277 C602.803,217.281 604.301,214.285 601.306,212.787 C598.310,212.787 592.318,212.787 590.820,215.783 C590.820,217.281 595.314,238.252 596.812,241.248 ZM303.220,88.460 C303.220,91.456 307.713,95.949 309.211,95.949 C310.709,95.949 313.705,94.452 316.701,94.452 C331.680,89.958 391.597,97.447 393.095,92.954 C393.095,88.460 385.605,89.958 382.609,89.958 C372.124,88.460 361.639,86.962 348.157,86.962 C343.664,86.962 304.718,85.464 303.220,88.460 ZM611.791,118.418 C608.795,118.418 605.799,119.916 607.297,122.912 C607.297,124.410 631.264,133.397 638.754,149.875 C638.754,152.870 640.251,160.360 643.247,160.360 C650.737,158.862 646.243,121.414 611.791,118.418 ZM737.616,468.931 C742.110,444.965 743.608,446.462 745.106,422.496 C745.106,412.010 740.612,413.508 737.616,422.496 C725.633,476.421 734.620,486.906 737.616,468.931 ZM577.339,353.591 C583.331,356.587 587.824,361.081 586.326,349.098 C584.828,346.102 584.828,332.621 583.331,329.625 C578.837,329.625 575.841,331.123 571.347,332.621 C566.853,334.119 559.364,337.114 559.364,343.106 C559.364,347.600 574.343,350.596 577.339,353.591 ZM873.927,669.652 C875.425,668.154 878.421,665.159 876.923,662.163 C873.927,660.665 864.939,672.648 863.441,665.159 C863.441,663.661 870.931,657.669 872.429,654.673 C872.429,647.184 873.927,638.196 870.931,632.204 C866.437,632.204 866.437,636.698 864.939,641.192 C864.939,642.690 863.441,644.188 863.441,647.184 C860.445,656.171 864.939,645.686 857.450,666.656 C851.458,684.631 854.454,681.636 864.939,674.146 L873.927,669.652 ZM665.716,356.587 C667.214,353.591 665.716,352.094 665.716,349.098 C659.724,337.114 652.235,299.666 650.737,296.671 C649.239,296.671 647.741,296.671 647.741,298.168 C643.247,304.160 647.741,313.148 649.239,319.139 C650.737,323.633 656.729,359.583 665.716,356.587 ZM794.537,536.338 C790.043,540.831 766.077,575.283 778.060,575.283 C784.052,575.283 788.545,558.806 791.541,557.308 C797.533,549.819 794.537,558.806 796.035,543.827 C797.533,540.831 797.533,537.835 796.035,534.840 C796.035,534.840 794.537,534.840 794.537,536.338 ZM791.541,512.371 C788.545,524.354 769.072,545.325 773.566,548.321 C776.562,549.819 778.060,546.823 779.558,545.325 C787.047,536.338 793.039,528.848 796.035,515.367 C796.035,512.371 797.533,504.881 794.537,504.881 C791.541,504.881 791.541,509.375 791.541,512.371 ZM748.102,459.944 C746.604,464.437 739.114,483.910 743.608,485.408 C748.102,485.408 754.093,462.940 757.089,458.446 C757.089,455.450 760.085,452.454 758.587,449.458 C749.599,447.960 749.599,453.952 748.102,459.944 ZM572.845,410.512 C572.845,407.517 571.347,404.521 571.347,403.023 C569.849,400.027 568.351,392.537 563.858,395.533 C535.397,413.508 572.845,413.508 572.845,410.512 ZM827.491,443.467 C827.491,444.965 830.487,456.948 830.487,459.944 C831.985,464.437 846.964,480.915 842.470,464.437 C842.470,461.442 840.973,458.446 839.475,455.450 C837.977,450.956 833.483,441.969 827.491,443.467 ZM226.826,629.209 C232.818,629.209 238.809,608.238 238.809,603.744 C237.311,600.748 231.320,603.744 229.822,605.242 C229.822,617.225 220.834,627.711 226.826,629.209 ZM864.939,696.615 C863.441,690.623 867.935,689.125 866.437,684.631 C861.943,680.138 855.952,690.623 857.450,696.615 C857.450,701.109 860.445,708.598 864.939,707.100 C867.935,707.100 864.939,701.109 864.939,696.615 ZM103.997,734.063 C105.494,731.067 109.988,722.079 102.499,723.577 C101.001,725.075 93.511,735.561 95.009,738.557 C98.005,740.054 101.001,737.059 103.997,734.063 ZM554.870,218.779 C554.870,221.775 553.372,226.268 556.368,227.766 C559.364,227.766 563.858,215.783 562.360,214.285 C562.360,211.289 553.372,205.298 554.870,218.779 ZM689.683,423.994 C694.177,422.496 689.683,412.010 691.181,407.517 C689.683,406.019 689.683,404.521 686.687,406.019 C683.691,409.014 685.189,423.994 689.683,423.994 ZM767.575,501.885 C766.077,510.873 770.570,512.371 772.068,501.885 C773.566,497.392 775.064,491.400 770.570,489.902 C769.072,492.898 767.575,495.894 767.575,501.885 ZM56.063,587.267 C50.071,585.769 42.582,587.267 42.582,591.761 C44.080,596.254 59.059,593.258 56.063,587.267 ZM482.970,122.912 C488.962,116.920 475.480,115.422 476.978,121.414 C476.978,122.912 479.974,124.410 482.970,122.912 ZM731.624,313.148 C727.131,314.646 730.127,320.637 733.122,319.139 C736.118,319.139 736.118,313.148 731.624,313.148 Z"/>
</svg>