<?xml version="1.0" encoding="UTF-8" standalone="no"?>
<svg 
 xmlns="http://www.w3.org/2000/svg"
 xmlns:xlink="http://www.w3.org/1999/xlink"
 width="970px" height="373px">
<path fill-rule="evenodd"  fill="rgb(255, 255, 255)"
 d="M2.144,364.306 C4.287,364.306 10.716,360.020 10.716,357.877 C9.645,354.662 1.072,355.734 0.000,357.877 C0.000,361.091 0.000,364.306 2.144,364.306 ZM40.721,349.304 C49.294,345.018 45.007,341.803 41.792,342.875 C32.148,346.090 27.862,355.734 40.721,349.304 ZM81.441,310.728 C83.584,308.585 85.728,308.585 85.728,305.371 C85.728,298.941 70.725,312.872 69.654,315.015 C69.654,320.372 76.083,322.516 78.227,319.301 C80.370,317.158 76.083,315.015 81.441,310.728 ZM545.440,131.779 C527.223,138.209 510.078,146.781 491.861,154.282 C482.216,158.568 483.288,162.854 494.004,158.568 C513.293,151.067 532.581,144.638 550.798,136.066 C552.941,134.994 561.514,132.851 561.514,129.636 C561.514,124.278 551.870,130.708 550.798,131.779 L545.440,131.779 ZM88.942,322.516 C88.942,325.730 93.229,324.659 95.372,323.587 C101.802,320.372 162.882,295.727 162.882,290.369 C162.882,285.011 145.737,294.655 143.594,295.727 C127.520,302.156 111.446,309.657 96.444,317.158 C94.300,319.301 87.871,318.229 88.942,322.516 ZM97.515,306.442 C98.587,313.943 113.589,301.084 103.945,302.156 C100.730,302.156 97.515,304.299 97.515,306.442 ZM167.169,312.872 C166.097,308.585 169.312,296.798 162.882,300.013 C151.095,306.442 123.233,319.301 110.374,324.659 C92.157,332.159 113.589,333.231 128.591,328.945 C135.021,327.873 163.954,316.086 167.169,312.872 ZM168.240,278.582 C170.383,277.510 184.314,267.866 184.314,264.652 C184.314,261.437 176.813,258.222 188.600,259.294 C206.817,262.509 211.104,262.509 229.321,253.936 C246.466,247.507 259.325,243.221 271.113,228.219 C273.256,226.076 277.542,222.861 277.542,220.718 C277.542,217.503 268.970,212.146 283.972,215.360 C292.545,217.503 302.189,221.790 311.833,218.575 C319.335,216.432 326.836,210.003 334.337,207.860 C343.981,205.716 339.695,207.860 348.268,202.502 C361.127,195.001 366.485,178.928 368.628,179.999 C373.986,182.142 364.341,188.572 368.628,190.715 C372.914,193.929 378.272,177.856 379.344,174.641 C380.415,171.427 379.344,168.212 382.558,168.212 C387.916,169.284 381.487,185.357 380.415,187.500 C379.344,188.572 372.914,196.072 379.344,196.072 C382.558,196.072 382.558,192.858 383.630,190.715 C385.773,188.572 391.131,186.428 394.346,185.357 C399.704,181.071 420.064,154.282 421.136,163.926 C421.136,168.212 406.133,175.713 410.420,179.999 C413.635,181.071 415.778,178.928 418.993,177.856 C440.424,166.069 465.071,158.568 487.574,148.924 C500.433,143.566 512.221,136.066 526.152,131.779 C542.226,127.493 526.152,125.350 522.937,124.278 C515.436,123.207 511.149,118.921 503.648,117.849 C485.431,113.563 471.501,102.847 452.212,101.776 C451.140,101.776 448.997,102.847 446.854,103.919 C441.496,104.991 437.210,104.991 432.923,106.062 C428.637,107.134 424.350,109.277 420.064,110.348 C402.919,115.706 387.916,123.207 369.699,127.493 C336.480,134.994 327.907,140.352 296.831,155.353 C282.900,161.783 268.970,166.069 253.967,171.427 C243.252,174.641 251.824,175.713 250.753,182.142 C250.753,183.214 249.681,184.285 246.466,184.285 C241.108,183.214 248.610,167.141 219.677,189.643 C205.746,199.287 195.030,211.074 181.099,220.718 C157.524,235.720 153.238,232.505 126.448,253.936 C113.589,264.652 123.233,260.366 123.233,265.723 C124.305,274.296 102.873,280.725 97.515,281.797 C84.656,285.011 88.942,288.226 98.587,291.441 C102.873,293.584 111.446,301.084 126.448,293.584 C139.307,286.083 133.949,291.441 137.164,290.369 C139.307,289.297 165.025,279.653 168.240,278.582 ZM395.418,149.996 C391.131,149.996 395.418,143.566 395.418,141.423 C397.561,137.137 398.632,128.565 403.990,133.922 C402.919,136.066 398.632,149.996 395.418,149.996 ZM345.053,196.072 C321.478,207.860 318.263,202.502 322.549,199.287 L325.764,199.287 C333.265,198.216 342.910,190.715 348.268,189.643 C351.482,189.643 353.625,191.786 345.053,196.072 ZM451.140,173.570 C452.212,176.785 476.858,167.141 472.572,163.926 C469.357,162.854 467.214,163.926 463.999,164.997 C460.785,166.069 448.997,170.355 451.140,173.570 ZM440.424,181.071 C456.498,174.641 448.997,172.498 445.782,172.498 C443.639,173.570 442.568,174.641 440.424,175.713 C438.281,176.785 425.422,178.928 426.494,183.214 C426.494,187.500 437.210,182.142 440.424,181.071 ZM363.270,225.004 C368.628,231.434 371.843,217.503 369.699,215.360 C364.341,214.289 363.270,219.647 363.270,225.004 ZM265.755,250.722 C276.471,246.435 285.044,244.292 294.688,240.006 C304.332,235.720 311.833,231.434 321.478,228.219 C335.408,222.861 326.836,220.718 324.693,221.790 C319.335,223.933 257.182,244.292 258.254,250.722 C258.254,255.008 264.683,250.722 265.755,250.722 ZM281.829,259.294 C282.900,257.151 287.187,249.650 280.757,251.793 C273.256,253.936 265.755,257.151 258.254,260.366 C243.252,264.652 258.254,266.795 263.612,268.938 C266.827,270.009 266.827,270.009 270.041,268.938 C276.471,265.723 278.614,264.652 281.829,259.294 ZM285.044,221.790 C281.829,221.790 275.399,233.577 287.187,228.219 C295.760,225.004 290.402,220.718 285.044,221.790 ZM342.910,225.004 C335.408,228.219 325.764,233.577 316.120,236.791 C306.475,241.078 304.332,245.364 317.191,244.292 C323.621,243.221 327.907,244.292 333.265,238.935 C334.337,237.863 335.408,235.720 336.480,234.648 C339.695,233.577 348.268,230.362 347.196,226.076 C347.196,225.004 343.981,223.933 342.910,225.004 ZM348.268,244.292 C316.120,258.222 301.118,246.435 300.046,252.865 C300.046,257.151 308.619,256.079 312.905,257.151 C315.048,258.222 317.191,259.294 318.263,260.366 C322.549,260.366 354.697,250.722 351.482,245.364 C350.411,244.292 349.339,244.292 348.268,244.292 ZM190.744,271.081 C196.102,273.224 199.316,263.580 192.887,265.723 C190.744,265.723 188.600,270.009 190.744,271.081 ZM208.961,348.233 C213.247,345.018 210.032,343.947 206.817,341.803 C200.388,338.589 203.603,338.589 197.173,339.660 C183.242,340.732 182.171,330.016 175.741,337.517 C172.527,341.803 170.383,346.090 165.025,348.233 C159.667,350.376 159.667,352.519 165.025,355.734 C180.028,364.306 196.102,358.948 208.961,348.233 ZM367.556,364.306 C375.057,363.234 371.843,349.304 368.628,343.947 C361.127,342.875 351.482,341.803 343.981,340.732 C340.766,339.660 333.265,337.517 334.337,341.803 C334.337,342.875 353.625,356.805 355.769,357.877 C357.912,361.091 362.198,366.449 367.556,364.306 ZM671.888,352.519 C671.888,350.376 668.673,348.233 667.602,346.090 C664.387,342.875 664.387,338.589 657.957,339.660 C654.743,340.732 655.814,342.875 657.957,345.018 C659.029,347.161 670.816,358.948 671.888,352.519 ZM681.532,347.161 C685.819,346.090 681.532,340.732 678.318,340.732 C672.960,340.732 677.246,349.304 681.532,347.161 ZM698.678,352.519 C702.964,358.948 709.394,348.233 714.752,345.018 C719.038,342.875 720.110,338.589 713.680,339.660 C687.962,341.803 687.962,337.517 698.678,352.519 ZM701.893,166.069 C699.749,167.141 697.606,168.212 697.606,170.355 C698.678,175.713 719.038,166.069 735.112,183.214 C753.329,201.430 749.043,203.573 757.615,218.575 C762.973,228.219 761.902,241.078 767.260,251.793 C767.260,253.936 770.474,259.294 765.116,259.294 C759.759,259.294 761.902,244.292 756.544,245.364 C752.257,246.435 756.544,277.510 756.544,282.868 C757.615,298.941 760.830,285.011 754.401,303.228 C751.186,311.800 742.613,318.229 737.255,326.802 C736.184,328.945 731.897,334.303 730.826,336.446 C727.611,341.803 730.826,340.732 723.324,347.161 C705.107,364.306 704.036,363.234 714.752,365.378 C737.255,371.807 739.398,371.807 756.544,355.734 C769.403,343.947 777.976,311.800 779.047,293.584 C780.119,281.797 788.691,286.083 779.047,322.516 C776.904,332.159 772.618,348.233 765.116,355.734 C751.186,370.735 789.763,352.519 802.622,341.803 C807.980,337.517 816.553,322.516 819.768,322.516 C825.126,323.587 818.696,330.016 818.696,331.088 C809.052,346.090 810.123,348.233 792.978,357.877 C788.691,360.020 774.761,365.378 774.761,368.592 C775.832,381.451 831.555,340.732 835.842,336.446 C845.486,323.587 846.557,301.084 850.844,301.084 C858.345,302.156 844.414,333.231 842.271,337.517 C830.484,353.591 806.909,361.091 820.839,363.234 C842.271,366.449 846.557,370.735 866.918,352.519 C872.276,347.161 873.347,347.161 880.848,342.875 C881.920,341.803 888.349,336.446 889.421,342.875 C889.421,346.090 876.562,354.662 873.347,357.877 C860.488,370.735 848.701,368.592 899.065,372.878 C927.998,375.022 920.497,333.231 921.569,325.730 C921.569,322.516 931.213,300.013 933.356,292.512 C934.428,289.297 935.499,282.868 938.714,282.868 C947.287,282.868 929.070,317.158 932.285,319.301 C936.571,322.516 940.857,309.657 945.144,303.228 C955.860,281.797 949.430,278.582 951.573,257.151 C953.717,238.935 950.502,226.076 947.287,208.931 C944.072,188.572 938.714,172.498 927.998,159.640 C918.354,149.996 919.426,149.996 908.710,157.497 C895.851,168.212 907.638,158.568 922.640,183.214 C930.142,196.072 932.285,214.289 934.428,229.291 C936.571,237.863 938.714,245.364 939.786,253.936 C940.857,268.938 931.213,271.081 933.356,264.652 C934.428,258.222 935.499,262.509 934.428,249.650 C931.213,234.648 926.927,221.790 923.712,206.788 C911.924,163.926 893.707,173.570 872.276,159.640 C870.132,158.568 867.989,156.425 865.846,155.353 C859.417,152.139 847.629,154.282 858.345,159.640 C878.705,171.427 885.135,242.149 894.779,242.149 C899.065,241.078 902.280,229.291 911.924,230.362 C922.640,231.434 921.569,247.507 918.354,257.151 C914.068,270.009 904.423,282.868 901.209,295.727 C900.137,297.870 901.209,303.228 896.922,303.228 C890.493,302.156 901.209,275.367 902.280,273.224 C907.638,264.652 914.068,258.222 915.139,247.507 C915.139,243.221 912.996,238.935 910.853,238.935 C901.209,237.863 893.707,273.224 878.705,226.076 C877.634,222.861 871.204,188.572 867.989,188.572 C864.774,188.572 863.703,197.144 860.488,188.572 C858.345,182.142 844.414,159.640 840.128,166.069 C839.056,168.212 845.486,174.641 846.557,176.785 C847.629,179.999 865.846,219.647 858.345,221.790 C855.130,223.933 850.844,217.503 854.059,228.219 C857.273,241.078 855.130,278.582 851.915,281.797 C850.844,282.868 847.629,281.797 846.557,282.868 C847.629,297.870 843.343,309.657 836.913,318.229 C829.412,331.088 827.269,325.730 828.340,321.444 C829.412,317.158 833.698,312.872 835.842,309.657 C841.199,301.084 843.343,290.369 842.271,279.653 C842.271,275.367 849.772,289.297 849.772,245.364 C849.772,233.577 848.701,222.861 846.557,212.146 C845.486,208.931 843.343,205.716 844.414,202.502 C846.557,201.430 847.629,202.502 848.701,200.359 C850.844,196.072 831.555,159.640 803.694,155.353 C800.479,154.282 767.260,153.210 780.119,160.711 C798.336,172.498 788.691,177.856 783.334,172.498 C766.188,155.353 745.828,152.139 757.615,162.854 C765.116,169.284 757.615,174.641 749.043,164.997 C744.756,160.711 742.613,157.497 737.255,154.282 C736.184,154.282 730.826,152.139 729.754,153.210 C726.539,157.497 735.112,159.640 736.184,161.783 C744.756,169.284 762.973,197.144 766.188,204.645 C780.119,250.722 769.403,240.006 768.331,234.648 C765.116,212.146 753.329,195.001 741.541,178.928 C728.682,163.926 721.181,155.353 701.893,166.069 ZM699.749,178.928 C671.888,176.785 600.091,152.139 576.516,142.495 C561.514,136.066 570.087,134.994 543.297,146.781 C524.008,155.353 502.577,161.783 482.216,169.284 L452.212,183.214 C440.424,188.572 388.988,205.716 384.702,208.931 C383.630,210.003 383.630,212.146 382.558,213.217 C381.487,214.289 371.843,220.718 378.272,222.861 C380.415,222.861 385.773,215.360 396.489,211.074 C410.420,205.716 411.491,211.074 402.919,214.289 C399.704,215.360 386.845,218.575 387.916,222.861 C388.988,228.219 405.062,217.503 406.133,225.004 C406.133,229.291 388.988,230.362 384.702,232.505 C376.129,234.648 363.270,252.865 342.910,260.366 C328.979,264.652 283.972,279.653 271.113,278.582 L266.827,278.582 L259.325,278.582 C258.254,278.582 259.325,275.367 258.254,274.296 C246.466,265.723 205.746,278.582 197.173,283.940 C196.102,283.940 185.386,290.369 185.386,291.441 C182.171,297.870 199.316,288.226 206.817,295.727 C212.175,301.084 212.175,323.587 207.889,323.587 C201.460,323.587 206.817,307.514 203.603,301.084 C199.316,294.655 172.527,300.013 175.741,318.229 C175.741,326.802 176.813,327.873 183.242,330.016 C201.460,336.446 195.030,332.159 202.531,332.159 C210.032,333.231 206.817,342.875 243.252,339.660 C251.824,338.589 260.397,337.517 268.970,337.517 C270.041,336.446 268.970,332.159 270.041,332.159 C274.328,331.088 277.542,333.231 279.686,334.303 C293.616,338.589 313.977,328.945 349.339,333.231 C352.554,333.231 355.769,334.303 360.055,334.303 C362.198,331.088 358.983,325.730 365.413,330.016 C377.200,337.517 377.200,340.732 394.346,342.875 C397.561,342.875 400.775,342.875 405.062,343.947 C408.277,343.947 413.635,346.090 414.706,343.947 C415.778,339.660 396.489,332.159 398.632,326.802 C400.775,320.372 411.491,342.875 455.427,350.376 C481.145,355.734 521.865,356.805 548.655,349.304 C554.013,348.233 559.371,346.090 564.729,345.018 C601.163,337.517 616.165,347.161 644.027,323.587 C659.029,310.728 656.886,320.372 653.671,323.587 C652.599,324.659 635.454,337.517 650.456,334.303 C663.315,331.088 676.174,333.231 690.105,333.231 C694.391,333.231 719.038,332.159 723.324,331.088 C726.539,330.016 734.040,320.372 732.969,318.229 C730.826,312.872 693.320,317.158 693.320,310.728 C693.320,307.514 698.678,308.585 702.964,308.585 C707.251,308.585 738.327,311.800 739.398,310.728 C742.613,310.728 749.043,298.941 747.971,295.727 C745.828,292.512 722.253,301.084 723.324,294.655 C724.396,290.369 745.828,291.441 749.043,290.369 C750.114,279.653 746.899,268.938 745.828,256.079 C744.756,237.863 752.257,226.076 744.756,207.860 C742.613,204.645 740.470,200.359 738.327,197.144 C735.112,197.144 735.112,199.287 732.969,199.287 C730.826,199.287 708.322,196.072 705.107,196.072 C681.532,192.858 661.172,188.572 642.955,181.071 C639.740,179.999 632.239,177.856 633.311,174.641 C633.311,170.355 641.884,175.713 642.955,175.713 C665.459,185.357 691.177,188.572 717.966,189.643 C721.181,190.715 729.754,191.786 729.754,189.643 C730.826,186.428 723.324,182.142 722.253,182.142 C715.823,178.928 708.322,179.999 699.749,178.928 ZM430.780,282.868 C437.210,279.653 440.424,292.512 431.852,287.154 C429.708,286.083 427.565,283.940 430.780,282.868 ZM377.200,302.156 C377.200,302.156 386.845,310.728 380.415,310.728 C372.914,310.728 367.556,295.727 376.129,298.941 C377.200,300.013 377.200,301.084 377.200,302.156 ZM275.399,306.442 C274.328,318.229 282.900,318.229 282.900,322.516 C282.900,328.945 273.256,322.516 271.113,317.158 C266.827,306.442 272.185,301.084 275.399,306.442 ZM294.688,312.872 C295.760,312.872 300.046,317.158 298.974,319.301 C294.688,324.659 287.187,312.872 294.688,312.872 ZM839.056,35.340 C836.913,36.411 833.698,36.411 834.770,39.626 C834.770,43.912 845.486,38.554 847.629,37.483 C871.204,28.910 886.206,25.696 909.781,22.481 C923.712,20.338 934.428,18.195 947.287,17.123 C951.573,17.123 951.573,17.123 955.860,14.980 C960.146,11.766 960.146,11.766 958.003,8.551 C953.717,3.193 951.573,7.479 947.287,9.622 C932.285,18.195 940.857,9.622 936.571,8.551 C933.356,8.551 923.712,19.266 922.640,14.980 C921.569,11.766 927.998,11.766 926.927,7.479 C925.855,4.265 915.139,10.694 912.996,11.766 C910.853,12.837 909.781,16.052 906.567,16.052 C905.495,14.980 906.567,12.837 904.423,11.766 C901.209,10.694 881.920,28.910 881.920,21.410 C881.920,18.195 899.065,8.551 901.209,7.479 C903.352,6.408 907.638,5.336 907.638,3.193 C907.638,-5.379 870.132,12.837 859.417,26.767 C855.130,32.125 856.202,24.624 854.059,24.624 C851.915,23.553 841.199,33.197 839.056,35.340 ZM596.877,104.991 C591.519,109.277 589.376,112.491 599.020,110.348 L603.306,110.348 C604.378,109.277 604.378,106.062 606.521,106.062 C609.736,107.134 605.449,112.491 608.664,113.563 C609.736,114.635 623.666,109.277 629.024,108.205 C644.027,106.062 752.257,72.844 758.687,70.701 C781.190,63.200 802.622,52.485 825.126,44.984 C833.698,42.841 831.555,42.841 829.412,38.554 C828.340,33.197 822.982,38.554 820.839,39.626 C799.407,53.556 798.336,47.127 803.694,43.912 C805.837,42.841 813.338,40.697 812.266,36.411 C809.052,32.125 782.262,57.842 782.262,48.198 C782.262,44.984 794.049,40.697 796.193,39.626 C809.052,31.054 816.553,24.624 829.412,17.123 C840.128,10.694 831.555,9.622 831.555,9.622 C815.481,14.980 784.405,35.340 771.546,46.055 C769.403,47.127 765.116,52.485 762.973,51.413 C760.830,50.341 765.116,40.697 755.472,48.198 C752.257,51.413 749.043,52.485 745.828,55.699 C744.756,57.842 739.398,62.129 739.398,57.842 C738.327,54.628 752.257,44.984 754.401,42.841 C762.973,37.483 769.403,32.125 777.976,26.767 C787.620,19.266 781.190,16.052 772.618,22.481 C759.759,31.054 726.539,57.842 716.895,67.486 C711.537,72.844 708.322,69.629 714.752,63.200 C724.396,54.628 732.969,47.127 742.613,39.626 C744.756,37.483 747.971,36.411 746.899,33.197 C743.685,31.054 740.470,34.268 738.327,36.411 C723.324,47.127 705.107,56.771 692.248,71.772 C691.177,73.916 689.034,74.987 687.962,73.916 C683.676,68.558 701.893,63.200 697.606,58.914 C693.320,54.628 670.816,82.488 667.602,81.416 C660.101,78.202 697.606,50.341 701.893,47.127 C711.537,41.769 707.251,38.554 696.535,43.912 C680.461,52.485 668.673,64.272 661.172,80.345 C654.743,92.132 652.599,85.703 655.814,80.345 C660.101,72.844 656.886,70.701 651.528,78.202 C645.098,88.917 650.456,82.488 650.456,88.917 C650.456,91.060 646.170,96.418 644.027,96.418 C639.740,96.418 642.955,92.132 636.526,98.561 C635.454,100.704 634.382,101.776 632.239,101.776 C632.239,100.704 631.168,101.776 631.168,100.704 C630.096,97.490 633.311,96.418 635.454,94.275 C638.669,89.989 640.812,84.631 644.027,80.345 C645.098,78.202 648.313,76.059 646.170,73.916 C642.955,70.701 625.810,88.917 623.666,91.060 C620.452,94.275 612.951,100.704 621.523,101.776 C622.595,101.776 623.666,98.561 625.810,99.633 C627.953,99.633 627.953,104.991 624.738,106.062 C623.666,106.062 622.595,103.919 621.523,103.919 C619.380,103.919 618.308,108.205 616.165,107.134 C614.022,107.134 615.094,103.919 614.022,102.847 C611.879,102.847 609.736,103.919 609.736,101.776 C608.664,98.561 619.380,95.347 615.094,91.060 C612.951,88.917 600.091,101.776 596.877,104.991 ZM722.253,112.491 C722.253,112.491 723.324,111.420 723.324,110.348 C723.324,109.277 721.181,108.205 721.181,106.062 C721.181,102.847 726.539,100.704 716.895,101.776 C710.465,101.776 705.107,101.776 700.821,99.633 C696.535,98.561 694.391,96.418 691.177,97.490 C681.532,101.776 669.745,104.991 657.957,108.205 C654.743,109.277 647.241,109.277 647.241,112.491 C647.241,116.778 659.029,114.635 659.029,117.849 C659.029,122.135 638.669,116.778 637.597,116.778 C630.096,113.563 633.311,114.635 624.738,116.778 C621.523,117.849 601.163,123.207 601.163,126.422 C601.163,129.636 616.165,133.922 618.308,131.779 C619.380,130.708 618.308,128.565 619.380,127.493 C622.595,125.350 630.096,129.636 632.239,126.422 C634.382,125.350 631.168,123.207 633.311,122.135 C635.454,121.064 636.526,123.207 637.597,123.207 C639.740,124.278 664.387,126.422 666.530,126.422 C670.816,126.422 672.960,125.350 676.174,125.350 C680.461,126.422 670.816,130.708 686.890,130.708 C690.105,130.708 694.391,131.779 694.391,128.565 C694.391,123.207 664.387,121.064 664.387,116.778 C665.459,112.491 672.960,117.849 675.103,116.778 C679.389,114.635 674.031,111.420 686.890,113.563 C690.105,114.635 692.248,115.706 695.463,114.635 C697.606,109.277 690.105,112.491 690.105,108.205 C690.105,104.991 696.535,108.205 698.678,108.205 C705.107,110.348 715.823,111.420 722.253,112.491 ZM969.790,20.338 C970.862,17.123 967.647,12.837 965.504,14.980 C949.430,21.410 962.289,19.266 938.714,23.553 C908.710,27.839 877.634,34.268 848.701,42.841 C841.199,46.055 833.698,49.270 846.557,50.341 C851.915,51.413 870.132,50.341 870.132,53.556 C869.061,58.914 835.842,54.628 833.698,53.556 C827.269,51.413 831.555,49.270 822.982,52.485 C814.410,55.699 821.911,57.842 828.340,57.842 C831.555,57.842 837.985,57.842 837.985,61.057 C837.985,64.272 816.553,61.057 813.338,61.057 C804.765,61.057 813.338,55.699 799.407,61.057 C783.334,68.558 769.403,73.916 752.257,79.273 C738.327,83.560 746.899,83.560 744.756,86.774 C743.685,88.917 741.541,86.774 739.398,86.774 C736.184,85.703 724.396,84.631 724.396,88.917 C724.396,93.204 736.184,88.917 736.184,93.204 C735.112,97.490 725.468,94.275 722.253,93.204 C720.110,92.132 716.895,93.204 714.752,93.204 C711.537,92.132 705.107,89.989 705.107,94.275 C705.107,100.704 728.682,94.275 729.754,99.633 C729.754,103.919 723.324,104.991 735.112,106.062 C737.255,106.062 742.613,109.277 743.685,106.062 C743.685,103.919 736.184,98.561 745.828,100.704 C754.401,102.847 762.973,103.919 772.618,104.991 C775.832,104.991 782.262,107.134 782.262,102.847 C783.334,97.490 759.759,101.776 760.830,96.418 C761.902,89.989 794.049,102.847 796.193,98.561 C800.479,92.132 772.618,94.275 773.689,88.917 C773.689,82.488 816.553,99.633 816.553,91.060 C816.553,85.703 787.620,88.917 788.691,82.488 C789.763,79.273 819.768,85.703 821.911,86.774 C825.126,86.774 831.555,88.917 831.555,85.703 C832.627,80.345 814.410,80.345 800.479,76.059 C797.264,74.987 790.835,74.987 791.906,71.772 C792.978,66.415 831.555,80.345 833.698,76.059 C834.770,70.701 820.839,72.844 820.839,68.558 C825.126,65.343 837.985,77.130 866.918,68.558 C877.634,65.343 871.204,65.343 872.276,61.057 C873.347,57.842 877.634,58.914 878.705,55.699 C878.705,53.556 875.490,53.556 876.562,51.413 C877.634,48.198 889.421,52.485 890.493,50.341 C891.564,48.198 890.493,47.127 890.493,44.984 C893.707,43.912 904.423,48.198 905.495,43.912 C907.638,36.411 889.421,42.841 888.349,39.626 C886.206,33.197 919.426,40.697 921.569,38.554 C924.784,35.340 917.282,33.197 927.998,33.197 C931.213,33.197 948.359,33.197 950.502,29.982 C950.502,28.910 949.430,27.839 950.502,26.767 C952.645,24.624 968.719,24.624 969.790,20.338 Z"/>
</svg>